<?xml version="1.0" encoding="UTF-8"?>
<svg xmlns="http://www.w3.org/2000/svg" width="186" height="56" viewBox="0 0 186 56" fill="none">
  <g clip-path="url(#clip0_217_1751)">
    <path d="M20.7659 24.6H38.0459V13.51H42.966V40.65H38.0459V29.56H20.7659V40.65H15.8459V13.51H20.7659V24.6Z" fill="white"></path>
    <path d="M67.4658 40.65H60.4658L49.4158 29.56H45.9558V24.56H49.4158L60.4858 13.51H67.4858L53.5658 27.08L67.4658 40.65Z" fill="#50C8ED"></path>
    <path d="M96.636 32.66C96.6451 33.5503 96.5203 34.4368 96.266 35.29C96.031 36.0171 95.6944 36.7073 95.266 37.34C94.875 37.9149 94.3958 38.4245 93.846 38.85C93.3204 39.2433 92.7537 39.5785 92.156 39.85C91.5896 40.1089 90.9958 40.3035 90.386 40.43C89.831 40.5532 89.2645 40.6169 88.696 40.62H69.696V35.73H88.696C89.1005 35.7542 89.5055 35.6928 89.8846 35.5498C90.2637 35.4067 90.6083 35.1853 90.896 34.9C91.4416 34.285 91.7251 33.4812 91.686 32.66C91.6904 32.2375 91.6193 31.8176 91.476 31.42C91.3453 31.0497 91.1412 30.7096 90.876 30.42C90.6115 30.1426 90.2911 29.9245 89.936 29.78C89.541 29.6253 89.1202 29.5472 88.696 29.55H77.406C76.5334 29.5371 75.6674 29.3955 74.836 29.13C73.8996 28.8371 73.0275 28.3687 72.266 27.75C71.4312 27.0783 70.7494 26.2363 70.266 25.28C69.7445 24.1049 69.5047 22.8242 69.566 21.54C69.526 20.2492 69.7934 18.9673 70.346 17.8C70.8345 16.8442 71.5154 15.9999 72.346 15.32C73.105 14.6975 73.9779 14.2288 74.916 13.94C75.747 13.6715 76.6129 13.5266 77.486 13.51H94.156V18.43H77.406C77.0008 18.4092 76.5958 18.4752 76.2181 18.6235C75.8405 18.7718 75.4988 18.999 75.216 19.29C74.6744 19.9107 74.3948 20.7173 74.436 21.54C74.3921 22.3601 74.6722 23.1646 75.216 23.78C75.5041 24.0612 75.8477 24.2794 76.2247 24.4205C76.6017 24.5617 77.004 24.6228 77.406 24.6H88.766C89.3315 24.6229 89.8937 24.6966 90.446 24.82C91.0575 24.9592 91.6513 25.1672 92.216 25.44C92.8143 25.7043 93.3784 26.0401 93.896 26.44C94.4383 26.8868 94.9103 27.4127 95.296 28C95.7266 28.6134 96.0637 29.2875 96.296 30C96.5452 30.864 96.6599 31.7611 96.636 32.66Z" fill="white"></path>
    <path d="M8.56592 51.54C7.50505 51.54 6.48764 51.1186 5.73749 50.3684C4.98735 49.6183 4.56592 48.6009 4.56592 47.54V8C4.56592 6.93913 4.98735 5.92172 5.73749 5.17157C6.48764 4.42143 7.50505 4 8.56592 4H70.2659L74.2659 0H8.56592C6.44419 0 4.40935 0.842855 2.90906 2.34315C1.40877 3.84344 0.565918 5.87827 0.565918 8L0.565918 47.54C0.565918 49.6617 1.40877 51.6966 2.90906 53.1969C4.40935 54.6971 6.44419 55.54 8.56592 55.54H74.9359L70.9359 51.54H8.56592Z" fill="white"></path>
    <path d="M102.936 0H81.236L77.126 4H102.936C103.997 4 105.014 4.42143 105.764 5.17157C106.515 5.92172 106.936 6.93913 106.936 8V47.54C106.936 48.6009 106.515 49.6183 105.764 50.3684C105.014 51.1186 103.997 51.54 102.936 51.54H77.806L81.916 55.54H102.916C105.038 55.54 107.073 54.6971 108.573 53.1969C110.073 51.6966 110.916 49.6617 110.916 47.54V8C110.916 5.88173 110.076 3.84992 108.58 2.35021C107.084 0.850488 105.054 0.00529568 102.936 0V0Z" fill="white"></path>
    <path d="M125.696 23.8301C125.143 23.8591 124.592 23.7345 124.106 23.4701C123.714 23.2178 123.429 22.8296 123.306 22.3801C123.141 21.7982 123.063 21.1949 123.076 20.5901V16.5901C123.009 15.6928 123.226 14.7973 123.696 14.0301C123.937 13.7402 124.245 13.5132 124.594 13.3686C124.942 13.2241 125.32 13.1662 125.696 13.2001H129.996C130.503 13.1864 131.01 13.2334 131.506 13.3401C131.856 13.4301 132.026 13.5201 132.026 13.6201L131.736 15.1201C131.576 15.1201 131.096 15.0501 130.306 15.0001C129.516 14.9501 128.306 14.9401 126.836 14.9401H126.106C125.346 14.9401 124.966 15.3701 124.966 16.2201V20.8401C124.932 21.1922 125.02 21.5454 125.216 21.8401C125.328 21.9611 125.467 22.0541 125.621 22.1114C125.776 22.1687 125.942 22.1888 126.106 22.1701H126.696H129.006L130.566 22.0001V19.5601H129.706L127.836 19.7401V18.0001H132.436V23.0801L132.586 23.4601C132.586 23.5601 132.386 23.6401 131.986 23.7201C131.324 23.8167 130.655 23.8569 129.986 23.8401L125.696 23.8301Z" fill="white"></path>
    <path d="M134.396 23.8299L134.546 22.3799V13.1899H136.426V22.0899H142.346L142.916 23.6299C142.916 23.6799 142.786 23.7199 142.536 23.7699C142.094 23.8195 141.65 23.8395 141.206 23.8299H134.396Z" fill="white"></path>
    <path d="M146.496 23.8299C145.946 23.8571 145.4 23.7326 144.916 23.4699C144.524 23.2177 144.239 22.8295 144.116 22.3799C143.942 21.7997 143.861 21.1955 143.876 20.5899V16.4099C143.863 15.815 143.941 15.2215 144.106 14.6499C144.238 14.2047 144.521 13.8194 144.906 13.5599C145.392 13.292 145.942 13.1639 146.496 13.1899H150.666C151.211 13.1614 151.752 13.2899 152.226 13.5599C152.611 13.8194 152.894 14.2047 153.026 14.6499C153.2 15.2199 153.281 15.8142 153.266 16.4099V20.5899C153.319 21.4339 153.124 22.2748 152.706 23.0099C152.467 23.3014 152.158 23.5289 151.809 23.672C151.46 23.8151 151.081 23.8694 150.706 23.8299H146.496ZM146.906 22.0899H150.266C150.42 22.1002 150.574 22.0749 150.716 22.0159C150.858 21.9569 150.985 21.8659 151.086 21.7499C151.296 21.4833 151.399 21.1484 151.376 20.8099V16.1899C151.382 15.8674 151.276 15.5528 151.076 15.2999C150.979 15.1799 150.855 15.084 150.714 15.0198C150.574 14.9556 150.42 14.9248 150.266 14.9299H146.906C146.751 14.9232 146.597 14.9501 146.454 15.0088C146.31 15.0675 146.182 15.1566 146.076 15.2699C145.859 15.5256 145.748 15.8549 145.766 16.1899V20.8099C145.73 21.1698 145.838 21.5293 146.066 21.8099C146.179 21.9117 146.312 21.9891 146.457 22.0373C146.601 22.0855 146.754 22.1034 146.906 22.0899Z" fill="white"></path>
    <path d="M155.226 23.8301V13.1701H161.446C161.809 13.1319 162.175 13.173 162.521 13.2904C162.866 13.4078 163.182 13.5987 163.446 13.8501C163.855 14.2968 164.077 14.8841 164.066 15.4901V16.0001C164.084 16.4211 163.998 16.84 163.816 17.2201C163.691 17.4858 163.506 17.7186 163.276 17.9001C163.7 18.0705 164.053 18.3811 164.276 18.7801C164.545 19.2833 164.673 19.85 164.646 20.4201V20.7401C164.647 21.1058 164.614 21.4707 164.546 21.8301C164.49 22.1847 164.365 22.5248 164.176 22.8301C163.983 23.1373 163.71 23.3862 163.386 23.5501C162.974 23.7458 162.521 23.8384 162.066 23.8201L155.226 23.8301ZM157.116 17.4401H161.116C161.256 17.4581 161.398 17.439 161.527 17.3845C161.657 17.3301 161.771 17.2423 161.856 17.1301C162.021 16.882 162.105 16.5882 162.096 16.2901V16.1001C162.096 15.817 162.016 15.5397 161.866 15.3001C161.773 15.1634 161.645 15.0548 161.495 14.986C161.346 14.9172 161.18 14.8909 161.016 14.9101H157.086L157.116 17.4401ZM157.116 22.0901H161.616C161.769 22.1003 161.923 22.075 162.066 22.016C162.208 21.9571 162.335 21.866 162.436 21.7501C162.633 21.4777 162.732 21.1461 162.716 20.8101V20.4801C162.73 20.1451 162.612 19.8179 162.386 19.5701C162.239 19.4387 162.066 19.3397 161.878 19.2795C161.69 19.2192 161.492 19.1989 161.296 19.2201H157.116V22.0901Z" fill="white"></path>
    <path d="M165.276 23.8299L169.456 13.1899H172.276L176.446 23.8299H174.246L173.406 21.5299H168.286L167.356 23.8299H165.276ZM168.806 19.7599H172.876L170.876 14.8199H170.736L168.806 19.7599Z" fill="white"></path>
    <path d="M177.406 23.8299L177.546 22.3799V13.1899H179.436V22.0899H185.356L185.926 23.6299C185.926 23.6799 185.796 23.7199 185.536 23.7699C185.095 23.8198 184.65 23.8398 184.206 23.8299H177.406Z" fill="white"></path>
    <path d="M125.696 40.8301C125.143 40.8591 124.592 40.7345 124.106 40.4701C123.714 40.2178 123.429 39.8296 123.306 39.3801C123.141 38.7982 123.063 38.1949 123.076 37.5901V33.5901C123.009 32.6928 123.226 31.7973 123.696 31.0301C123.937 30.7402 124.245 30.5132 124.594 30.3686C124.942 30.2241 125.32 30.1662 125.696 30.2001H129.996C130.503 30.1864 131.01 30.2334 131.506 30.3401C131.856 30.4301 132.026 30.5201 132.026 30.6201L131.736 32.1201C131.576 32.1201 131.096 32.0501 130.306 32.0001C129.516 31.9501 128.306 31.9401 126.836 31.9401H126.106C125.346 31.9401 124.966 32.3701 124.966 33.2201V37.8401C124.943 38.1755 125.031 38.5092 125.216 38.7901C125.328 38.9111 125.467 39.0041 125.621 39.0614C125.776 39.1187 125.942 39.1388 126.106 39.1201H126.696H129.006L130.566 39.0001V36.5601H129.706L127.836 36.7401V35.0001H132.436V40.0801L132.586 40.4601C132.586 40.5601 132.386 40.6401 131.986 40.7201C131.324 40.8167 130.655 40.8569 129.986 40.8401L125.696 40.8301Z" fill="white"></path>
    <path d="M143.566 41.0001C143.181 41.003 142.799 40.9247 142.446 40.7701C141.943 40.5071 141.51 40.1263 141.186 39.6601L140.186 38.3601C139.827 37.8637 139.358 37.4566 138.816 37.1701C138.228 36.8962 137.584 36.7659 136.936 36.7901H136.486V40.7901H134.566V31.6401L134.416 30.1701H140.756C141.251 30.149 141.744 30.2558 142.186 30.4801C142.519 30.6653 142.788 30.9479 142.956 31.2901C143.126 31.6174 143.235 31.9734 143.276 32.3401C143.326 32.6946 143.353 33.0521 143.356 33.4101V33.7601C143.353 34.0555 143.323 34.3501 143.266 34.6401C143.208 34.9885 143.097 35.3258 142.936 35.6401C142.774 35.9588 142.538 36.2334 142.246 36.4401C141.894 36.6696 141.486 36.8008 141.066 36.8201C141.233 36.9372 141.39 37.0676 141.536 37.2101C141.726 37.3801 141.926 37.5701 142.126 37.7801L142.696 38.3401C142.82 38.4704 142.953 38.5908 143.096 38.7001C143.373 38.9161 143.679 39.0912 144.006 39.2201C144.219 39.3024 144.44 39.3595 144.666 39.3901H144.966L144.686 40.8601C144.547 40.9147 144.403 40.9549 144.256 40.9801C144.027 41.0085 143.796 41.0152 143.566 41.0001ZM138.566 35.1401C138.926 35.1401 139.246 35.1401 139.566 35.1401L140.336 35.0801C140.505 35.0695 140.67 35.0251 140.821 34.9495C140.972 34.8739 141.106 34.7687 141.216 34.6401C141.395 34.3676 141.482 34.0455 141.466 33.7201V33.3101C141.482 32.9608 141.399 32.614 141.226 32.3101C141.125 32.1745 140.991 32.0666 140.838 31.9967C140.684 31.8972 140.515 31.8969 140.346 31.9101H136.446V35.0601C136.866 35.0601 137.256 35.1201 137.606 35.1301L138.566 35.1401Z" fill="white"></path>
    <path d="M148.566 40.8299C148.019 40.8584 147.476 40.7337 146.996 40.4699C146.607 40.2122 146.321 39.8266 146.186 39.3799C146.021 38.798 145.943 38.1947 145.956 37.5899V33.4099C145.943 32.815 146.021 32.2215 146.186 31.6499C146.318 31.2047 146.601 30.8194 146.986 30.5599C147.469 30.2938 148.015 30.1658 148.566 30.1899H152.746C153.291 30.1614 153.832 30.2899 154.306 30.5599C154.691 30.8194 154.974 31.2047 155.106 31.6499C155.28 32.2199 155.361 32.8142 155.346 33.4099V37.5899C155.398 38.4339 155.204 39.2748 154.786 40.0099C154.546 40.3014 154.238 40.5289 153.889 40.672C153.54 40.8151 153.161 40.8694 152.786 40.8299H148.566ZM148.986 39.0899H152.346C152.5 39.1002 152.654 39.0749 152.796 39.0159C152.938 38.9569 153.065 38.8659 153.166 38.7499C153.371 38.4807 153.474 38.1477 153.456 37.8099V33.1899C153.462 32.8674 153.356 32.5528 153.156 32.2999C153.059 32.1799 152.935 32.084 152.794 32.0198C152.654 31.9556 152.5 31.9248 152.346 31.9299H148.986C148.831 31.9232 148.677 31.9501 148.534 32.0088C148.39 32.0675 148.261 32.1566 148.156 32.2699C147.939 32.5256 147.828 32.8549 147.846 33.1899V37.8099C147.823 38.153 147.93 38.4921 148.146 38.7599C148.249 38.8645 148.372 38.9475 148.508 39.0042C148.644 39.0608 148.789 39.09 148.936 39.0899H148.986Z" fill="white"></path>
    <path d="M159.366 40.9999C159.011 41.0364 158.653 40.9723 158.333 40.8149C158.013 40.6575 157.744 40.4132 157.556 40.1099C157.176 39.3871 156.996 38.5757 157.036 37.7599V30.1899H158.926V37.8399C158.9 38.0424 158.916 38.2481 158.973 38.4442C159.029 38.6403 159.126 38.8227 159.256 38.9799C159.478 39.1778 159.769 39.2817 160.066 39.2699H163.066C163.359 39.2752 163.644 39.1719 163.866 38.9799C164 38.8246 164.101 38.643 164.161 38.4468C164.221 38.2505 164.24 38.0438 164.216 37.8399V30.1899H166.096V37.7699C166.106 38.3437 166.035 38.9159 165.886 39.4699C165.773 39.9116 165.525 40.3068 165.176 40.5999C164.776 40.8964 164.283 41.0417 163.786 41.0099L159.366 40.9999Z" fill="white"></path>
    <path d="M168.156 40.8299V31.6399L168.016 30.1699H174.346C174.845 30.1476 175.341 30.2543 175.786 30.4799C176.117 30.668 176.385 30.9499 176.556 31.2899C176.722 31.6189 176.83 31.9741 176.876 32.3399C176.923 32.6946 176.946 33.0521 176.946 33.4099V34.4799C176.944 34.7925 176.911 35.1041 176.846 35.4099C176.78 35.7616 176.654 36.0997 176.476 36.4099C176.288 36.7361 176.02 37.0083 175.696 37.1999C175.284 37.4283 174.817 37.539 174.346 37.5199H172.886C172.286 37.5199 171.726 37.4999 171.206 37.4599L170.046 37.3699V40.8299H168.156ZM170.046 35.8299H173.936C174.105 35.8503 174.277 35.8238 174.432 35.7532C174.587 35.6827 174.72 35.5708 174.816 35.4299C175.001 35.1305 175.088 34.7811 175.066 34.4299V33.2899C175.084 32.9391 174.997 32.5908 174.816 32.2899C174.722 32.1498 174.59 32.0383 174.437 31.9678C174.284 31.8972 174.114 31.8703 173.946 31.8899H170.046V35.8299Z" fill="white"></path>
  </g>
  <defs>
    <clipPath id="clip0_217_1751">
      <rect width="185.36" height="55.54" fill="white" transform="translate(0.565918)"></rect>
    </clipPath>
  </defs>
</svg>
